# xmcd
#
# Track frame offsets:
#	150
#	23523
#	43814
#	62222
#	85485
#	114030
#	135835
#	171997
#	187664
#	207630
#
# Disc length: 2794 seconds
#
# Revision: 1
# Processed by: cddbd v1.5.1PL2 Copyright (c) Steve Scherf et al.
# Submitted via: EasyCDDAExtractor 9.0.0.1
#
DISCID=7e0ae80a
DTITLE=Black Sabbath - Sunrise Musical Theater Miami 13-03-94 Disc 2
DYEAR=1994
DGENRE=Hard Rock
TTITLE0=Neon Knights
TTITLE1=Immaculate Deception
TTITLE2=The Wizard
TTITLE3=Cross Of Thorns
TTITLE4=Symptom Of The Universe
TTITLE5=Drum Solo
TTITLE6=Headless Cross
TTITLE7=Paranoid
TTITLE8=Iron Man
TTITLE9=Sabbath Bloody Sabbath
EXTD=
EXTT0=
EXTT1=
EXTT2=
EXTT3=
EXTT4=
EXTT5=
EXTT6=
EXTT7=
EXTT8=
EXTT9=
PLAYORDER=
